<?xml version="1.0" encoding="UTF-8" standalone="no"?>
<svg
   xmlns:dc="http://purl.org/dc/elements/1.1/"
   xmlns:cc="http://creativecommons.org/ns#"
   xmlns:rdf="http://www.w3.org/1999/02/22-rdf-syntax-ns#"
   xmlns:svg="http://www.w3.org/2000/svg"
   xmlns="http://www.w3.org/2000/svg"
   xmlns:sodipodi="http://sodipodi.sourceforge.net/DTD/sodipodi-0.dtd"
   xmlns:inkscape="http://www.inkscape.org/namespaces/inkscape"
   version="1.0"
   width="347.53351"
   height="816.32562"
   viewBox="0 0 3475.3351 8163.2562"
   preserveAspectRatio="xMidYMid meet"
   id="svg287"
   sodipodi:docname="yuki.svg"
   inkscape:version="0.92.1 r15371">
  <metadata
     id="metadata293">
    <rdf:RDF>
      <cc:Work
         rdf:about="">
        <dc:format>image/svg+xml</dc:format>
        <dc:type
           rdf:resource="http://purl.org/dc/dcmitype/StillImage" />
        <dc:title />
      </cc:Work>
    </rdf:RDF>
  </metadata>
  <defs
     id="defs291" />
  <sodipodi:namedview
     pagecolor="#ffffff"
     bordercolor="#666666"
     borderopacity="1"
     objecttolerance="10"
     gridtolerance="10"
     guidetolerance="10"
     inkscape:pageopacity="0"
     inkscape:pageshadow="2"
     inkscape:window-width="1440"
     inkscape:window-height="853"
     id="namedview289"
     showgrid="false"
     fit-margin-top="0"
     fit-margin-left="0"
     fit-margin-right="0"
     fit-margin-bottom="0"
     inkscape:zoom="0.70710678"
     inkscape:cx="-254.72231"
     inkscape:cy="429.89736"
     inkscape:window-x="-4"
     inkscape:window-y="-4"
     inkscape:window-maximized="1"
     inkscape:current-layer="layer11" />
  <g
     inkscape:groupmode="layer"
     id="layer11"
     inkscape:label="path"
     style="display:inline">
    <path
       transform="translate(-11336.231,-836.74354)"
       style="display:inline;fill:#d3ce3f;stroke:none"
       d="m 12932,6217 c -95,-79 -141,-102 -227,-108 -44,-4 -134,-21 -200,-39 -66,-18 -145,-36 -175,-40 -30,-4 -75,-11 -98,-15 -42,-8 -44,-7 -40,16 4,27 51,57 111,71 53,12 129,56 124,71 -2,7 -31,13 -75,15 -57,2 -82,-2 -131,-23 -33,-14 -66,-25 -74,-25 -25,0 -137,-106 -340,-320 l -204,-216 -6,-59 c -11,-113 -98,-240 -230,-338 -40,-30 -41,-47 -3,-47 29,0 168,142 224,228 39,60 52,92 66,155 5,20 17,33 41,43 56,23 82,18 136,-28 154,-134 396,-216 709,-243 l 76,-7 72,94 c 40,51 88,113 107,138 116,151 360,459 381,481 22,23 24,31 18,83 -4,33 -15,68 -26,82 -19,23 -24,24 -77,18 -52,-6 -60,-4 -88,20 l -31,26 z"
       id="path151"
       inkscape:connector-curvature="0" />
    <path
       transform="translate(-11336.231,-836.74354)"
       style="display:inline;fill:#4c80ab;stroke:none"
       d="m 12872,5656 -122,-154 14,-39 c 44,-124 212,-421 374,-658 208,-305 318,-443 512,-640 247,-252 241,-243 238,-347 l -3,-83 34,-3 c 76,-7 154,47 202,139 33,66 102,122 237,194 306,162 405,236 433,321 9,28 14,166 18,474 8,547 -2,711 -40,698 -12,-4 -21,-258 -23,-643 -2,-345 -6,-368 -76,-470 -35,-51 -111,-95 -165,-95 -44,0 -134,25 -223,62 -139,59 -227,170 -545,688 -137,223 -245,362 -359,461 -64,55 -197,149 -212,149 -3,0 -40,22 -83,50 -43,27 -81,50 -84,50 -3,0 -61,-69 -127,-154 z"
       id="path167"
       inkscape:connector-curvature="0" />
    <path
       transform="translate(-11336.231,-836.74354)"
       style="display:inline;fill:#4c80ab;stroke:none"
       d="m 12341,5247 c -38,-100 -41,-639 -5,-922 10,-76 54,-115 174,-153 155,-48 309,-134 530,-297 47,-34 100,-67 119,-74 43,-14 106,-14 133,0 18,10 20,17 14,67 -4,31 -15,70 -26,87 -19,32 -138,107 -220,140 -35,14 -49,27 -64,59 -27,59 -45,76 -103,102 -34,15 -54,31 -58,46 -9,31 -48,116 -96,209 -57,113 -132,350 -174,554 -20,99 -39,182 -41,184 -2,2 -34,5 -70,7 -37,2 -75,6 -86,9 -13,5 -21,0 -27,-18 z"
       id="path169"
       inkscape:connector-curvature="0" />
    <path
       transform="translate(-11336.231,-836.74354)"
       style="display:inline;fill:#7c6172;stroke:none"
       d="m 12706,3888 c -2,-7 -9,-61 -14,-120 -11,-104 -21,-140 -79,-282 l -28,-69 -7,71 c -8,81 -32,146 -50,140 -7,-3 -16,-27 -21,-54 -12,-74 -36,-142 -78,-219 -45,-83 -141,-293 -175,-385 -14,-36 -29,-69 -35,-75 -14,-14 -2,103 22,225 10,55 15,98 10,103 -12,12 -51,-51 -97,-151 -50,-109 -92,-265 -106,-395 -9,-86 -14,-105 -19,-82 -11,38 -29,235 -29,307 0,62 -14,83 -30,46 -21,-47 -51,-197 -62,-310 -9,-89 -9,-139 0,-215 12,-100 62,-316 106,-455 13,-43 23,-78 21,-78 -7,0 -89,127 -128,200 -66,121 -105,221 -131,330 -15,66 -27,95 -37,95 -11,0 -14,-19 -12,-105 6,-284 102,-580 255,-785 73,-98 356,-378 460,-456 228,-169 441,-259 734,-310 174,-29 380,-30 516,-1 119,25 252,92 338,169 48,43 65,53 94,53 109,0 350,195 479,388 82,122 137,267 137,360 0,22 7,59 15,82 18,52 20,254 4,482 -10,139 -9,166 6,235 9,43 23,93 30,110 22,53 -2,50 -60,-7 l -52,-52 -18,99 c -27,154 -54,276 -64,286 -21,21 -31,-8 -32,-96 l -1,-92 -40,85 c -32,68 -104,274 -146,419 -15,53 -27,23 -32,-79 l -5,-105 -39,85 c -57,125 -105,254 -125,334 -11,47 -22,71 -32,71 -18,0 -39,-63 -46,-143 l -6,-64 -24,29 c -13,15 -32,45 -43,66 -11,20 -26,37 -33,37 -15,0 -54,59 -63,94 -13,55 -54,58 -54,4 0,-30 -1,-29 -49,33 -73,96 -138,156 -153,141 -9,-9 -7,-17 9,-34 62,-67 144,-266 182,-443 21,-95 91,-692 91,-773 0,-32 -18,-86 -66,-201 -64,-151 -184,-395 -190,-388 -2,2 5,49 16,106 22,110 25,176 11,186 -16,9 -256,-311 -315,-420 l -21,-40 -3,150 c -1,83 2,179 8,215 16,98 16,103 3,107 -17,6 -94,-115 -158,-250 -57,-119 -101,-254 -112,-346 l -6,-55 -19,54 c -47,138 -65,334 -47,510 21,216 17,228 -54,128 -60,-85 -105,-176 -137,-277 l -26,-84 -41,99 c -56,134 -111,319 -119,399 -11,111 -31,101 -79,-38 l -32,-95 -7,66 c -11,122 -6,364 9,436 12,58 22,76 60,118 48,51 53,75 16,70 -17,-1 -21,2 -18,15 3,10 18,69 33,132 31,129 57,171 134,227 34,25 48,40 41,48 -5,6 -12,36 -16,66 -24,184 -100,387 -119,318 z"
       id="path206"
       inkscape:connector-curvature="0" />
    <path
       transform="translate(-11336.231,-836.74354)"
       style="display:inline;fill:#352621;stroke:none"
       d="m 11779,8808 c 0,-106 -2,-228 -5,-271 -5,-57 -1,-106 14,-185 12,-59 26,-143 32,-187 13,-97 75,-348 135,-545 66,-219 85,-302 96,-421 5,-60 18,-155 29,-211 11,-57 20,-104 20,-104 0,-1 -48,16 -107,37 -120,43 -139,46 -169,24 -41,-28 -112,-148 -134,-225 -12,-41 -48,-127 -80,-190 -32,-63 -61,-131 -65,-151 -10,-56 19,-150 79,-258 66,-116 87,-163 118,-260 13,-41 29,-76 35,-78 14,-5 265,256 257,268 -3,5 -14,9 -25,9 -11,0 -19,7 -19,18 0,21 16,47 29,47 21,0 71,47 71,66 0,12 11,30 25,41 14,11 25,25 25,33 0,21 24,60 40,63 27,6 86,61 107,100 l 21,40 -39,38 c -43,42 -50,78 -24,117 8,12 17,49 21,82 3,35 14,72 26,89 l 21,29 -37,137 c -51,197 -66,272 -76,391 -5,58 -22,159 -39,225 -35,136 -46,277 -61,741 -6,202 -13,297 -23,330 -9,27 -18,111 -22,188 -3,77 -7,146 -7,153 -1,9 -35,12 -135,12 h -134 z"
       id="path209"
       inkscape:connector-curvature="0" />
    <path
       transform="translate(-11336.231,-836.74354)"
       style="display:inline;fill:#6e191e;stroke:none"
       d="m 12485,8160 c -22,-36 -36,-548 -22,-800 3,-52 9,-167 12,-255 4,-88 8,-173 10,-190 2,-16 9,-86 16,-155 16,-171 16,-170 82,-170 62,0 168,18 181,30 5,5 23,53 40,107 29,87 35,98 57,100 13,0 27,1 32,2 11.582,2.5823 -28.326,84.674 -48,87 -31,12 -133,-99 -207,-224 -15,-26 -29,-39 -32,-33 -11,18 4,682 19,866 7,75 21,191 29,225 3,14 8,50 12,80 3,30 8,73 10,95 3,22 6,51 8,65 2,26 -28,70 -49,70 -6,0 -41,25 -78,55 -36,30 -69,50 -72,45 z"
       id="path141"
       inkscape:connector-curvature="0"
       sodipodi:nodetypes="cccccsccccccccccccscc" />
    <path
       transform="translate(-11336.231,-836.74354)"
       style="display:inline;fill:#4c80ab;stroke:none"
       d="m 14085,8993.5 c 17,-8 230,-31.5 280,-43.5 49,-12 138,-37 198,-56 60,-20 113,-32 117,-27 13,14 30,75 30,104 v 29 h -247 c -219,0 -404,5.5 -378,-6.5 z"
       id="path161"
       inkscape:connector-curvature="0"
       sodipodi:nodetypes="ccccscsc" />
    <path
       transform="translate(-11336.231,-836.74354)"
       style="display:inline;fill:#8fadc5;stroke:none"
       d="m 12684,5420 c -56,-73 -74,-89 -96,-90 -17,0 -35,-10 -50,-29 -13,-16 -33,-34 -46,-40 -24,-13 -20,-36 4,-27 8,3 14,4 14,2 0,-1 18,-85 39,-187 44,-206 113,-425 171,-538 21,-42 50,-103 65,-136 46,-106 49,-109 112,-140 34,-16 66,-31 71,-32 5,-1 36,-18 68,-38 49,-29 69,-35 115,-35 55,0 59,2 130,61 40,34 104,81 141,105 37,24 68,46 68,48 0,3 -50,71 -110,151 -142,189 -297,416 -394,577 -78,130 -206,380 -206,403 0,7 -6,18 -14,24 -11,9 -27,-7 -82,-79 z m 676,-932 c 13,-18 19,-33 13,-35 -25,-9 -131,-77 -171,-111 -91,-77 -174,-101 -223,-64 -13,9 -44,28 -69,41 -72,38 -111,63 -107,68 3,2 31,-10 63,-27 102,-53 115,-52 221,29 98,75 195,130 229,131 12,0 30,-13 44,-32 z"
       id="path148"
       inkscape:connector-curvature="0" />
    <path
       transform="translate(-11336.231,-836.74354)"
       style="display:inline;fill:#6e191e;stroke:none"
       d="m 12215,8151 c -17,-10 -46,-21 -67,-25 -61,-11 -61,-13 -49,-235 10,-164 17,-219 42,-316 17,-65 34,-166 39,-224 10,-119 25,-194 76,-391 l 37,-137 -21,-29 c -12,-17 -23,-54 -26,-89 -4,-33 -13,-70 -21,-82 -28,-42 -19,-75 33,-125 45,-45 48,-46 77,-34 28,12 55,40 112,114 l 22,29 -24,84 c -13,46 -40,129 -60,184 -21,55 -49,132 -62,170 -14,39 -29,75 -34,81 -5,6 -11,30 -14,55 -2,24 -8,69 -12,99 -4,30 -7,96 -7,145 3,336 7,549 14,607 8,69 1,130 -15,134 -6,1 -24,-5 -40,-15 z"
       id="path139"
       inkscape:connector-curvature="0" />
    <path
       transform="translate(-11336.231,-836.74354)"
       style="display:inline;fill:#f6cfa4;stroke:none"
       d="m 12685,6620 c -22,-4 -85,-10 -139,-12 -107,-5 -103,-3 -160,-83 -10,-15 -33,-33 -50,-40 -37,-16 -61,-40 -75,-77 -7,-18 -28,-36 -61,-53 -37,-19 -54,-35 -65,-61 -8,-20 -26,-49 -40,-66 -14,-16 -25,-35 -25,-42 0,-8 -18,-25 -40,-40 -46,-30 -67,-70 -49,-92 20,-24 55,-15 105,26 27,22 54,40 62,40 7,0 39,11 72,25 43,18 77,25 122,25 58,-1 61,-2 43,-16 -11,-8 -38,-19 -60,-25 -95,-26 -155,-64 -155,-99 0,-35 25,-43 92,-32 35,6 77,13 93,16 17,2 84,18 150,36 66,18 156,35 201,39 72,5 87,10 140,45 32,22 82,59 110,83 28,23 66,46 83,49 45,9 56,42 41,114 -15,66 -61,171 -96,217 l -25,33 -117,-1 c -64,-1 -135,-5 -157,-9 z"
       id="path154"
       inkscape:connector-curvature="0" />
    <path
       transform="translate(-11336.231,-836.74354)"
       style="display:inline;fill:#f6cfa4;stroke:none"
       d="m 13415,4308 c -33,-23 -89,-65 -125,-95 -105,-86 -164,-91 -269,-22 -58,38 -71,26 -40,-38 22,-45 31,-52 128,-100 163,-82 187,-113 178,-233 -3,-41 -8,-82 -12,-91 -3,-9 -32,-26 -63,-39 -93,-38 -349,-167 -390,-196 -55,-41 -111,-95 -132,-129 -22,-36 -84,-280 -75,-296 4,-6 16,-9 26,-6 27,7 24,2 -26,-52 -38,-41 -48,-59 -60,-117 -25,-119 -16,-517 13,-546 9,-9 12,-8 15,3 3,8 20,61 38,119 l 33,105 13,-78 c 26,-150 157,-504 184,-495 6,2 20,37 30,78 22,88 91,234 144,305 37,50 37,50 31,16 -38,-211 -25,-475 30,-646 31,-93 57,-94 68,-1 11,99 56,230 126,371 38,77 79,151 90,165 l 20,25 -8,-50 c -12,-85 -9,-408 5,-412 6,-2 29,26 51,64 42,71 138,210 226,326 l 51,68 3,-33 c 1,-18 -9,-85 -22,-148 -38,-183 -13,-175 92,30 99,191 192,421 192,472 0,81 -70,678 -91,773 -28,133 -71,254 -125,354 -41,75 -43,83 -19,61 15,-14 49,-56 77,-93 28,-37 56,-66 62,-64 7,2 13,47 17,118 5,105 4,117 -16,149 -19,30 -397,421 -407,420 -2,0 -30,-19 -63,-42 z"
       id="path156"
       inkscape:connector-curvature="0" />
    <path
       transform="translate(-11336.231,-836.74354)"
       style="display:inline;fill:#352621;stroke:none"
       d="m 11928,5395 c -7,-7 21,-95 45,-141 8,-16 29,-47 46,-68 34,-42 39,-59 71,-221 31,-153 85,-335 125,-419 43,-90 95,-152 119,-143 14,6 17,14 12,35 -3,15 -9,158 -12,317 -5,212 -3,314 6,380 17,122 17,126 0,135 -8,4 -48,15 -88,24 -41,9 -122,35 -180,57 -132,50 -136,52 -144,44 z"
       id="path213"
       inkscape:connector-curvature="0" />
    <path
       transform="translate(-11336.231,-836.74354)"
       style="display:inline;fill:#d3d5d8;stroke:none"
       d="m 12869,6894 c 0,0 7.723,-21.6517 16.723,-35.6517 22.046,-44.1321 -15.229,-5.3038 63.277,-14.4645 48,4 101,14.1162 160,32.1162 10,3 11,8 4,15 -14,14 -240.015,24.915 -244,3 z"
       id="path126"
       inkscape:connector-curvature="0"
       sodipodi:nodetypes="ccccsc" />
    <path
       transform="translate(-11336.231,-836.74354)"
       style="display:inline;fill:#4c80ab;stroke:none"
       d="m 12029,8995 c -3,-2 -2,-30 2,-62 4,-32 8,-99 8,-149 1,-57 7,-108 17,-135 12,-34 17,-101 21,-286 5,-192 9,-245 20,-255 17,-14 116,14 147,41 18,16 19,14 12,-49 -8,-69 -19,-490 -18,-675 0,-60 7,-151 15,-201 16,-95 57,-208 73,-202 5,2 9,47 9,101 0,110 4,117 71,117 25,0 51,7 63,18 22,17 22,18 10,169 -10,120 -10,210 -1,424 6,150 15,276 19,280 5,4 37,-15 73,-42 36,-27 73,-52 83,-55 22,-7 22,-5 -8,-214 -14,-96 -33,-257 -42,-357 -22.49,-240.4519 -28.79,-223.5431 122,-210 60,4 115,3 122,-1 8,-5 15,-64 20,-182 l 2,-176 134,-4 c 92,-4 132,-2 139,7 13,16 -6,415 -32,665 -17,166 -19,213 -10,338 31,435 70,678 121,770 13,23 20,48 17,64 -5,27 5,165 17,229 l 7,37 h -614 c -338,0 -617,-2 -619,-5 z"
       id="path159"
       inkscape:connector-curvature="0"
       sodipodi:nodetypes="cscccccccccssccccscccccccccccccccsc" />
    <path
       transform="translate(-11336.231,-836.74354)"
       style="display:inline;fill:#352621;stroke:none"
       d="m 13230,8932 c -6,-37 -11,-105 -45.5,-227 -34.5,-122 -73.5,-379 -104.5,-805 -9,-125 -7,-172 10,-338 26,-257 45,-651 31,-665 -17,-17 -152,-49 -217,-50 -33,-1 -67,-7 -75,-14 -8,-7 -28,-53 -44,-103 -35,-111 -33,-115 73,-116 108,-2 106,-2 117,-27 6,-12 22,-44 37,-72 40,-80 47,-97 53,-150 6,-59 2,-66 -50,-86 -55,-20 -58,-49 -10,-79 30,-19 44,-21 90,-15 79,9 80,8 81,-269 l 2,-229 69,-46 c 178,-119 292,-251 470,-541 305,-496 410,-634 531,-691 161,-76 252,-93 328,-60 26,12 57,29 67,39 34,30 78,102 100,160 19,53 21,80 23,367 0,171 4,386 8,479 3,93 2,174 -3,180 -4,6 -14,56 -20,111 -7,55 -19,128 -27,163 -18,79 -17,215 0,399 19,193 3,264 -89,399 -27,39 -53,93 -66,137 -54,187 -58,191 -195,201 -54,4 -100,9 -103,11 -11,11 30,170 59,226 36,71 70,172 106,311 13,54 58,183 100,288 93,235 127,374 128,520 0,58 -3,128 -8,156 -6,39 -5,62 7,95 9,24 24,91 33,148 l 18,104 -23,18 c -27,22 -245,93 -347.651,117.3931 C 14240.697,9002.7862 14004.944,9000 13732,9000 h -490 z"
       id="path211"
       inkscape:connector-curvature="0"
       sodipodi:nodetypes="ccccscsccccccccccccccccccccccccccccccccccccscc" />
    <path
       transform="translate(-11336.231,-836.74354)"
       style="display:inline;fill:#d3d5d8;stroke:none"
       d="m 13095,5948 c -44,-56 -86,-109 -92,-119 -11,-15 -4,-22 55,-60 37,-23 77,-52 89,-63 40,-34 42,-25 44,194 1,79 -3,146 -8,147 -4,2 -44,-43 -88,-99 z"
       id="path132"
       inkscape:connector-curvature="0" />
    <path
       transform="translate(-11336.231,-836.74354)"
       style="display:inline;fill:#d3d5d8;stroke:none"
       d="m 11683,5601 c -38,-18 -42,-23 -52,-73 -16,-76 -73,-167 -163,-263 -43,-45 -75,-85 -71,-88 3,-4 31,-4 62,0 49,5 62,12 177,107.5 115,95.5 136,115.5 157,133.5 l 38,32 77,-39 c 78,-40 185,-84 287.825,-115.8397 C 12298.65,5263.3207 12305,5263 12408,5249 l 83,-12 40,39 c 50,49 40,58 -65,67 -144,12 -367,72 -476,127 -55,27 -158,100 -184,129 -24,26 -67,27 -123,2 z"
       id="path134"
       inkscape:connector-curvature="0"
       sodipodi:nodetypes="ccccccccccccccccc" />
    <path
       transform="translate(-11336.231,-836.74354)"
       style="display:inline;fill:#d3d5d8;stroke:none"
       d="m 13249,4511 c -30,-15 -98,-59 -150,-97 -52,-39 -101,-73 -109,-76 -20,-6 -134,36 -167,62 -28,22 -48,15 -37,-13 6,-16 37,-37 134,-90 30,-16 66,-36 80,-43 14,-8 34,-14 45,-14 33,1 101,36 147,77 48,43 62,52 133,89 79,42 78,40 44,90 -16,24 -38,44 -47,43 -9,0 -42,-13 -73,-28 z"
       id="path136"
       inkscape:connector-curvature="0" />
    <path
       transform="translate(-11336.231,-836.74354)"
       style="display:inline;fill:#4c80ab;stroke:none"
       d="m 12594,7197 c -2,-7 -3,-71 -2,-143 l 3,-129 95,3 c 132,4 134,7 119,138 -16,134 -25,144 -131,144 -55,0 -80,-4 -84,-13 z"
       id="path163"
       inkscape:connector-curvature="0" />
    <path
       transform="translate(-11336.231,-836.74354)"
       style="display:inline;fill:#4c80ab;stroke:none"
       d="m 12440,7192 c -19,-2 -45,-13 -58,-25 -22,-21 -23,-28 -20,-125 4,-121 13,-135 88,-130 l 45,3 -3,135 c -1,74 -5,137 -10,140 -4,3 -23,4 -42,2 z"
       id="path165"
       inkscape:connector-curvature="0" />
    <path
       transform="translate(-11336.231,-836.74354)"
       style="display:inline;fill:#d3d5d8;stroke:none"
       d="m 12606,6875 c -19,-10 -21,-20 -23,-107 -1,-95 6,-153 21,-153 7,0 18,18 52,88 11,21 42,68 71,105 28,36 49,70 46,75 -7,11 -141,4 -167,-8 z"
       id="path128"
       inkscape:connector-curvature="0" />
    <path
       transform="translate(-11336.231,-836.74354)"
       style="display:inline;fill:#8f929e;stroke:none"
       d="m 12687,7273 c -73,-4 -95.675,22.7824 -95.286,-30 -3.781,-67.9 0.112,-54.948 86.286,-53 51.986,1.1751 83,-4 89,-12 12,-15 36,-208 28,-217 -4,-3 -50,-10 -103,-16 l -97,-10 v -35 c 0,-31 3,-35 25,-33 14,0 60,2 103,4 49,2 82,8 125,15 43,7 44,29 39,184 -6,162 -8,176 -28,193 -13,10 -35,16 -58,15 -20,-1 -71,-4 -114,-5 z"
       id="path83"
       inkscape:connector-curvature="0"
       sodipodi:nodetypes="ccsccccsccccccc" />
    <path
       transform="translate(-11336.231,-836.74354)"
       style="display:inline;fill:#d3d5d8;stroke:none"
       d="m 12435,6863 c -16,-3 -48.142,14.981 -53.142,9.981 -4,-5 18.142,-66.981 33.142,-111.981 14,-44 24,-85 26,-96.5 2,-11.5 5.113,-25.6192 7,-40.5 4.484,-35.3588 9.868,-21.0148 47.25,-19 43.39,5.6066 44.227,-7.3039 34.75,20 -8,9 -9,29 -11.5,65.5 -2.5,36.5 -6.5,63.5 -5.5,93.5 1,54 -14,88 -37,85 -6,-1 -24,-4 -41,-6 z"
       id="path130"
       inkscape:connector-curvature="0"
       sodipodi:nodetypes="ccccscccccc" />
    <path
       transform="translate(-11336.231,-836.74354)"
       style="display:inline;fill:#8f929e;stroke:none"
       d="m 12403,7261 c -29,-4 -60,-15 -72,-25 -19,-17 -20,-26 -15,-125 5,-82 13,-122 34,-176 l 27,-70 50.116,-5.4645 c 74.668,1.7849 79.859,-16.5625 73.884,32.4645 0.963,37.9634 -5.27,37.7298 -51,36 -62,4 -70,18 -70,128 0,101 5,110 59,116 18.864,1.7966 43.74,4.4767 41.009,16.4351 -3.075,13.465 2.596,18.5228 -0.634,38.1899 0.449,14.5716 4.49,31.9137 -1.993,36.1974 -9.701,6.4093 -33.623,2.9728 -74.382,-1.8224 z"
       id="path85"
       inkscape:connector-curvature="0"
       sodipodi:nodetypes="ccccccccscscsc" />
  </g>
</svg>
