<?xml version="1.0" encoding="utf-8"?>
<svg xmlns="http://www.w3.org/2000/svg" xmlns:osb="http://www.openswatchbook.org/uri/2009/osb" viewBox="0 0 138 136" width="528" height="519">
    <defs>
        <linearGradient xmlns:osb="http://www.openswatchbook.org/uri/2009/osb" id="c" gradientTransform="translate(-.798 .3)" osb:paint="solid">
            <stop stop-color="#fff" offset="0" />
        </linearGradient>
        <linearGradient xmlns:osb="http://www.openswatchbook.org/uri/2009/osb" id="g" osb:paint="solid">
            <stop stop-color="#fdebdd" offset="0" />
        </linearGradient>
        <linearGradient xmlns:osb="http://www.openswatchbook.org/uri/2009/osb" id="a" gradientTransform="translate(-3.104 -.423) scale(.00014)" osb:paint="solid">
            <stop stop-color="#5c5c5c" offset="0" />
        </linearGradient>
        <linearGradient xmlns:osb="http://www.openswatchbook.org/uri/2009/osb" id="b" gradientTransform="scale(157.63)" osb:paint="solid">
            <stop stop-color="#fcec95" offset="0" />
        </linearGradient>
        <clipPath id="j">
            <path d="M72.018 123.34c-1.643.005-3.315.092-4.955.292-2.082.254-6.17.27-7.77 1.08-4.907 2.49-17.826 11.76-19.372 12.873h48.17c1.035-4.614.414-11.78-1.094-12.312-1.26-.445-7.855-1.955-14.977-1.933z" stroke="#000" stroke-width=".282" fill="none" />
        </clipPath>
        <clipPath id="i">
            <path d="M61.313 64.946c-1.782.265-3.19 1.95-4.937 2.39-2.42.613-6.22 2.937-6.22 2.937 2.152 7.55 6.142 13.533 8.964 19.99 3.387-2.612 7.953-7.77 8.843-7.672.993.11 3.254 1.93 3.254 1.93.65-1.52 2.955-2.363 3.696-1.792 3.652 2.817 6.533 3.12 10.5 6.214 0 0 1.642-9.847.05-15.18-.346-1.153-5.45-3.63-6.174-4.226-.727-.6-2.368-2.91-4.168-3.67-1.8-.758-13.81-.917-13.81-.917z" stroke="#000" stroke-width=".282" fill="none" />
        </clipPath>
        <clipPath id="h">
            <path d="M90.86 125.83c-2.06.005-3.664.057-3.664.057l-.586 11.7h14.77c.287-4.53-.783-9.79-1.762-10.914-.63-.725-5.326-.85-8.758-.843z" stroke="#000" stroke-width=".282" fill="none" />
        </clipPath>
        <clipPath id="e">
            <path d="M51.4 70.45s-6.13 3.677-9.67 5.41c-2.827 1.383-4.998 4.036-5.31 8.466-.338 4.808-1.85 8.086-1.777 10.113.264 7.415 1.907 31.1 3.96 43.142H48.3l13.14-12.547c2.037-2.456-.797-4.568-1.77-6.037-2.634-3.97-5.2-10.345-7.882-13.643-.562-.69-1.88-5.662-2.135-7.038-.472-2.567.56-5.42-.652-7.127-.392-.556-.744-1.1-1.056-1.623 0 0 4.745-3.89 6.367-11.086z" stroke="#000" stroke-width=".282" fill="none" />
        </clipPath>
        <clipPath id="f">
            <path d="M84.963 74.497s6.02 1.978 9.437 4.298 4.53 5.78 5.355 9.147c1.92 7.833 2.146 14.817 2.22 18.86.075 4.04 1.9 14.906 2.218 16.423s-1.852 4.41-1.852 4.41l-8.64 4.375-6.843-5.08s4.092-10.655 5.326-18.698c.497-3.23-1.85-12.804-1.85-12.804-2 1.147-9.766.714-9.766.714l-2.01-11.68z" stroke="#000" stroke-width=".282" fill="none" />
        </clipPath>
        <clipPath id="d">
            <path d="M70.744 124.11l-1.62-9.58s.617-14.22.398-18.135c-.115-2.068-6.16-12.024-6.16-12.024l5.137-3.514s5.71 7.084 7.032 11.1c1.322 4.017 1.044 14.51.948 19.097-.105 5.045 2.964 7.41 2.68 9.208-.217 1.396-1.62 4.27-1.62 4.27z" stroke="#000" stroke-width=".282" fill="none" />
        </clipPath>
    </defs>
    <g>
        <path d="M90.75 30.12l4.14-3.143s8.24 17.686 4.64 32.08l-4.39-1.897c6.84-13.758-4.39-27.04-4.39-27.04z" fill-rule="evenodd" fill="url(#a)" />
        <path d="M323.83 34.977c-5.65.1-11.57 1.45-17.83 4.04l22 64.103c27.943 45.87 32.25 98.875 48.375 146.5 4.146 12.245 8.64 91.147 27.92 144.42 15.88 43.874 23.853 81.07 26.29 93.455H441.4c.26-82.94-24.43-121.57-26.15-158.12 0 0 43.345 102.18 30.07 158.12h18.178c-.09-9.853-1.225-55.29-14.18-97.854-10.81-35.5-24.94-60.77-33.07-127.9-2.8-23.13-1.53-104.82-39.54-179.78-16.12-31.79-32.73-47.35-52.88-46.99z" transform="scale(.28222)" fill="url(#b)" />
        <path d="M43.454 32.464l3.293 2.295S38.415 50.222 40.16 61.3l-5.536 2.296c-.3-12.173 5.986-20.605 8.83-31.132z" fill-rule="evenodd" fill="url(#a)" />
        <path d="M142.19 35.312C117.75 45.5 77.263 105.92 77.78 195.462c.226 38.915 7.082 77.83-2.708 121.35-16.023 24.838-35.193 51.27-47.318 80.885-12.502 30.533-14.3 60.24-13.922 78.064-2.22 3.874-4.535 7.787-6.95 11.74h37.436c1.698-3.375 8.97-17.84 14.432-28.874.273 12.92-2.16 23.846-3.508 28.875h22.71c2.54-13.65 11.256-64.04 7.173-92.62 11.8-36.14 18.225-73.34 20.805-90.46 10.31-21.32 22.69-53.68 24.82-89.42 2.28-38.26-3.23-80.11 22.52-121.36L166.08 44.5l-23.89-9.186zm-31.81 140.44s-5.12 73.448-18.576 110.62c4.957-44.61-2.47-85.9 18.576-110.62zm-42.23 165.32c-10.433 33.414-21.86 74.318-47.236 121.9.855-16.28 4.04-37.8 13.203-60.146 8.654-21.102 23.362-45.328 34.033-61.752z" transform="scale(.28222)" fill="url(#b)" />
        <rect opacity=".99" ry="1.389" height="56.444" width="53.058" y="78.757" x="40.971" fill="url(#c)" />
        <path d="M58.62 85.423c-3.142 4.09-5.936 11.028-5.28 15.367.546 3.614 5.537 5.284 7.585 2.258 2.363-3.493 1.305-7.902 3.316-10.054 2.014-2.152 4.34-4.128 4.34-4.128l-4.69-5.01zM70.66 98.39c-3.386 5.115-6.173 8.502-5.044 11.606 1.13 3.104 4.586 2.857 4.586 2.857zm-15.133 16.4s1.446-3.07 3.616-4.27l.758.583c1.9-.424 5.33-.133 7.005 2.803 2.45 4.305 1.012 11.46 1.012 11.46s-3.208-4.574-4.804-5.023c-1.596-.45-2.968.673-2.968.673zm37.17-8.36c-4.466-4.565-7.135-4.94-9.88-3.143s-3.378 8.32-1.296 10.826l.626-.86s2.33.542 3.53 2.868c.232.45-.736 1.886-.736 1.886 1.163 1.323 1.97 3.602 3.54 4.89l5.324-9.65z" fill-rule="evenodd" fill="url(#a)" />
        <path d="M68.5 80.858s5.71 7.084 7.033 11.1c1.323 4.017 1.045 14.51.95 19.097-.107 5.045 2.962 7.408 2.68 9.207-.22 1.395-1.623 4.27-1.623 4.27" stroke="url(#a)" stroke-width=".706" fill="none" />
        <g clip-path="url(#d)">
            <rect opacity=".99" ry="1.389" height="52.211" width="25.682" y="79.587" x="59.69" fill="url(#c)" />
            <path d="M68.35 97.82c3.094-2.218 1.87-6.485 3.393-7.782 1.52-1.297 3.616-2.32 3.616-2.32l3.714 6.56-1.596 11.226c-4.29 3.317-9.13 4.116-9.13 4.116zm4.166 26.593c4.066-5.213 6.236-5.14 7.458-4.116 1.223 1.023-1.746 5.912-1.746 5.912zm-7.887-34.91c4.37-2.752 2.784-7.938 2.784-7.938l-4.833 4.55z" fill-rule="evenodd" fill="url(#a)" />
        </g>
        <path d="M61.44 125.04c2.037-2.455-.797-4.568-1.77-6.037-2.634-3.97-5.2-10.344-7.882-13.642-.56-.69-1.88-5.66-2.134-7.035-.473-2.565.56-5.42-.653-7.126-2.21-3.115-3.074-5.92-3.074-5.92" stroke="url(#a)" stroke-width=".706" fill="none" />
        <g clip-path="url(#e)">
            <rect opacity=".99" ry="1.389" height="79.022" width="40.922" y="63.5" x="26.529" fill="url(#c)" />
            <path d="M41.16 74.497c2.544 3.642-.907 8.112 1.497 10.652 2.827 2.984 3.567 6.034 5.986 5.81 2.42-.225 7.983-10.7 7.983-10.7l-5.09-13.174zM35.278 84.93c4.075 3.934 6.302 8.948 3.762 10.57l4.59 1.473c.174 2.744 1.972 4.813 4.19 6.935 3.914 3.743 3.933 14.52-.688 17.413-4.622 2.895-11.606 1.52-11.606 1.52l-.53-11.4s3.318-1.856 3.14-5.15c-.228-4.23-2.36-6.907-.987-11.572-1.256-.688-3.178-1.552-3.178-1.552zm10.62 50.043c-1.06-6.28 3.09-8.847 4.374-10.69 3.88-5.573 6.854-4.78 8.724-3.263l3.268-.873 3 5.795z" fill-rule="evenodd" fill="url(#a)" />
        </g>
        <path d="M86.854 126.93s4.092-10.654 5.327-18.697c.5-3.23-2.026-13.35-2.026-13.35" stroke="url(#a)" stroke-width=".706" fill="none" />
        <g clip-path="url(#f)">
            <rect opacity=".99" ry="1.389" height="68.862" width="42.051" y="62.794" x="69.709" fill="url(#c)" />
            <path d="M85.055 81.792c1.658 2.364 2.184 2.997 3.88 3.122.1-1.522.356-2.044.69-2.716.544-1.102-.157-3.717.193-6.985l8.716 4.448 1.77 7.187s-4.643.214-6.36 2.944c-1.346 2.138-1.798 4.756-3.897 5.797-1.864.924-7.744-1.888-8.82-4.375-1.077-2.485-1.427-6.47-1.427-6.47zm15.973 9.668l-1.746 1.97c.53 1.553 1.223 4.74-.998 6.96-1.92 1.92-5.544 4.208-5.04 6.536.737 3.394 4.64 1.597 9.48-.598l-.05-7.36zM88.603 119.2c3.018-1.62 8.606-1.222 8.606-1.222l.87-1.547s2.846.45 5.103-2.02c1.694 1.27 2.822 11.006 2.822 11.006l-3.633 3.21-5.327-2.222-.81-1.2s.58-1.005.316-1.2c-.263-.193-2.274-1.94-3.42-.334-.34.48-1.676.034-3.016.493-1.34.46-2.61-.582-2.61-.582z" fill-rule="evenodd" fill="url(#a)" />
        </g>
        <path d="M356.14 444.46c-2.684.054-5.325 1.65-7.71 4.943l4.888 38.096h23.998c-.26-1.174-.608-2.626-1-3.936-1.04-3.477 1.67-4.944 1.738-9.938.063-4.62-3.76-7.01-7.394-10.967-3.215-3.5-1.14-9.457-8.282-15.6-2.037-1.75-4.15-2.643-6.238-2.6z" fill-rule="evenodd" transform="scale(.28222)" fill="url(#g)" />
        <path d="M359.22 487.5c1.013-16.047-2.78-34.69-6.246-38.67-2.237-2.57-18.872-3.014-31.033-2.986-7.294.016-12.98.2-12.98.2" transform="scale(.28222)" stroke="url(#a)" stroke-width="2.5" fill="none" />
        <g clip-path="url(#h)">
            <rect opacity=".99" ry="1.389" height="16.016" width="21.519" y="124.25" x="83.608" fill="url(#c)" />
            <path d="M102.82 135.99c-3.368-3.218-7.084-4.166-8.506-1.896s-2.595 4.515-3.667 4.765c-1.073.246 12.298.096 12.298.096zm-15.566-5.887c6.486-.55 7.558-5.09 7.558-5.09l-7.982-.05z" fill-rule="evenodd" fill="url(#a)" />
        </g>
        <path d="M88.078 137.58c1.033-4.614.425-11.78-1.083-12.312-1.26-.444-7.855-1.955-14.977-1.933-1.643.005-3.315.092-4.955.293-2.082.254-6.17.27-7.77 1.08" stroke="url(#a)" stroke-width=".706" fill="none" />
        <path d="M79.7 57.435s2.154 4.4-1.197 9.305c1.764-1.66 3.043-5.713 3.043-5.713s.146 3.64-1.97 7.733c3.668-3.986 3.47-8.32 3.47-8.32s1.094 2.095 3.564 3.506c-3.316-2.717-3.767-7.808-3.767-7.808 3.343-2.495 5.916-5.69 5.916-5.69s3.14 8.502.703 17.04c4.162-9.738.81-21.38.81-21.38.824-1.396 1.447-3.315 1.447-3.315l-3.385-5.257z" fill-rule="evenodd" fill="url(#b)" />
        <path d="M74.686 67.662c2.046-2.345 2.62-5.837 2.62-5.837s.673 3.442-.6 6.685c1.797-2.295 2.12-5.313 2.12-5.313s.425 2.395-.15 4.415c2.37-5.163-.473-8.805-.473-8.805l-3.966 2.245zm-14.194-6.735s-1.996 4.116-2.145 6.86c-.55-2.794.3-6.31.3-6.31s-1.922 2.793-2.37 6.86c-.6-3.768-.325-6.263-.325-6.263v-4.24z" fill-rule="evenodd" fill="url(#b)" />
        <g clip-path="url(#i)">
            <rect opacity=".99" ry="1.389" height="35.522" width="44.303" y="57.759" x="47.595" fill="url(#c)" />
            <path d="M82.27 87.27c-3.693-3.768-4.566-8.033-2.246-10.054 2.32-2.02 4.69-1.87 5.887-3.243s1.874 5.463 1.874 5.463l-1.82 11.15zm-5.94-12.974c4.066.075 6.36.49 6.094-3.142-.264-3.634-2.45-1.447-2.45-1.447-2.383.388-4.535.37-4.993-.335-.46-.705 1.35 4.924 1.35 4.924zm-12.298.075c-3.567 3.22-8.406-.223-12.098 2.347S48.33 68.51 48.33 68.51l13.02-4.66zm-.6 14.52c-2.817-5.44-7.782-3.42-7.782-3.42l3.318 6.638z" fill-rule="evenodd" fill="url(#a)" />
        </g>
        <g clip-path="url(#j)">
            <rect opacity=".99" ry="1.389" height="24.346" width="60.467" y="119.52" x="33.925" fill="url(#c)" />
            <path d="M89.104 135.23c-.71-.998-1.72.486-2.395-.262s-4.144-5.76-5.75-6.27c-1.605-.512-5.054-.09-7.124-1.19-2.07-1.096-5.14-1.944-6.636.15s.4 8.408 2.97 10.752c2.57 2.345 19.63 1.322 19.63 1.322zm-27.016 3.704c-2.744-2.57-3.175-6.268-2.47-8.12-.846.247-1.075.318-1.075.318-.175-2.17.988-3.052 1.376-4.498.385-1.447.226-3.14.226-3.14l-10.442 3.757-5.503 6.794c-.16 2.734.9 4.868.9 4.868z" fill-rule="evenodd" fill="url(#a)" />
        </g>
        <path d="M86.783 12.612s.688-7.567-3.07-10.9c-.397-.354-3.633 1.216-3.756 1.94-.124.722-.618 4.233-.618 4.233l1.514.388s.867-3.726 1.358-3.352c2.593 1.98 2.258 5.454 2.258 5.454z" fill-rule="evenodd" fill="url(#a)" />
        <path d="M85.037 11.36s5.13-6.17 13.635-6.245c-.324 7.21-2.626 14.148-3.282 13.99-2.237-.534-6.46-2.68-6.46-2.68l-3.276-4.89.512-.564s3.758 5.08 7.708 5.895c.57.118 2.265-9.47 2.265-9.47-10.056.924-10.006 5.103-10.006 5.103z" fill="url(#a)" />
        <path d="M116.26 51.63l4.533-2.276c-6.38-13.214-23.703-16-33.68-32.215l3.603-1.42c12.073 22.15 20.96 21.77 25.546 35.907zM45.774 12.41s3.068-7.634 5.712-8.482c.903-.29 2.956 2.522 3.044 3.916l-1.97 1.57s.327-3.166-.25-2.892c-2.222 1.053-4.49 6.56-4.49 6.56z" fill-rule="evenodd" fill="url(#a)" />
        <path d="M45.156 12.153l2.875 1.385c-3.555 4.268-9.924 6.354-11.133 6.354-1.21 0-2.595-4.515-3.967-11.45 9.43-.25 8.605 2.145 15.864 4.166l-.66 1.185s-5.39-3.056-12.25-3.83c0 0 1.927 8.085 2.403 8.134 1.587.163 5.05-.955 6.87-5.944z" fill="url(#a)" />
        <path d="M34.05 67.263s-1.97 1.372-3.118 3.792C19.158 41.42 47.57 18.87 47.57 18.87l-1.77-4.067S19.38 41.32 34.05 67.263z" fill-rule="evenodd" fill="url(#a)" />
        <path d="M56.162 58.632s2.45 2.365 4.445 3.263c0 0 .42 5.13-1.026 6.927 0 0 4.49 9.018 9.507 12.996 1.074.852 2.158 2.645 2.158 2.645 1.647-2.82 5.693-6.42 5.962-9.04.192-1.87-.388-3.474-.388-3.474s-1.447-1.13-1.377-2.47c.072-1.34.354-7.834.354-7.834 4.692-2.928 6.49-6.95 6.49-6.95 2.72.05 4.058-1.676 4.058-1.676l.618-9.594-.14-9.278L73.38 19.895l-20.885 7.337z" fill-rule="evenodd" fill="url(#g)" />
        <path d="M74.56 22.96h1.05s-.363 11.753 9.974 13.376l-.053 1.005c-11.286-1.23-10.97-14.38-10.97-14.38z" fill-rule="evenodd" fill="url(#b)" />
        <path d="M44.097 40.993c-2.943-9.53-1.926-19.86 2.176-26.19 4.69-7.234 17.187-13.645 27.04-9.778 1.678.658 10.158 1.017 14.917 9.544 6.568 11.766 4.868 22.116 4.868 22.116l-7.408-1.2c-8.114-2.504-11.042-12.03-11.042-12.03s1.556 15.976-8.992 19.433c8.784-4.198 7.933-15.715 7.933-15.715S72.052 36.633 55.4 38.68l-.223.762c10.583-2.152 15.834-10.586 15.834-10.586s-7.302 6.597-15.946 9.878l.245-3.457c9.666-3.458 13.264-9.984 13.264-9.984S62.473 30.69 55.1 36.51z" fill="url(#b)" />
        <path d="M85.013 34.26c.1 13.57 4.89 37.168-8.382 43.704 6.81-2.37 9.097-10.407 9.097-10.407s-.54 3.454-1.693 7.902c5.29-14.68 5.122-35.365 5.122-35.365s8.63 10.926 3.99 19.856c3.44-4.2 1.897-10.676 1.897-10.676s4.18 8.864-.548 14.967c10.16-8.96-4.49-34.573-4.49-34.573zm-38.13-10.87s-9.206 37.993 1.306 53.163c-6.317-13.97-3.07-31.362-3.07-31.362S43.08 71.457 61.59 74.9c-4.54-2.544-7.194-7.48-7.194-7.48l.556-6.44s1.52 9.056 7.01 12.548c-9.526-9.95-5.04-47.795-5.04-47.795z" fill-rule="evenodd" fill="url(#b)" />
        <path d="M59.902 84.208c-6.844-6.244-8.326-19.86-8.326-19.86s1.8 9.065 5.715 14.357c-3.614-6.76-3.842-12.065-3.842-12.065s1.495 7.298 6.81 12.312c-4.69-6.61-5.01-15.487-5.01-15.487s3.668 6.174 10.088 8.15c-8.502-3.81-10.615-12.3-10.615-12.3l-4.73 4.397s2.517 15.455 9.912 20.496z" fill-rule="evenodd" fill="url(#b)" />
        <path d="M86.198 32.09c-.923-1.272-.948-2.133.524-2.943s2.12-.063 1.995 2.02c.5-.973 1.56-1.06 2.146.636.586 1.697.237 1.97-.75 2.308.737.327 1.224.975.525 2.16-.698 1.185-1.247.973-1.696.46.112 1.01 0 2.197-1.56 1.87-1.558-.322-1.097-2.07-.81-2.916 0 0-1.434.773-1.77-1.384-.338-2.16.2-2.42 1.396-2.21z" fill-opacity=".982" fill-rule="evenodd" fill="#fecfdf" />
        <path d="M120.03 266l-6.188.178s2.456 84.656-64.868 221.32h3.26c67.638-135.2 67.798-221.5 67.798-221.5z" fill-rule="evenodd" transform="scale(.28222)" fill="url(#b)" />
        <path d="M103.19 56.903l1.73.247c-6.787 31.132 11.067 58.06 11.067 58.06l.454-2.535S99.3 83.943 103.19 56.903z" fill-rule="evenodd" fill="url(#b)" />
        <path d="M416.31 417.32s-6.577 38.55-9.03 70.18h6.98c3.078-21.98 8.945-44.37 8.945-44.37s12.375 27.045 25.633 42.778l4.42-3.357c-16.087-20.15-36.947-65.23-36.947-65.23zm7.44-104.7l-2.25 22.25s39.078 24.968 57.32 77.473c-12.33-57.29-55.07-99.72-55.07-99.72zm55.07 99.723c4.997 23.22 4.998 48.88-4.863 75.152h13.045c2.97-29.444-.985-54.44-8.182-75.152z" fill-rule="evenodd" transform="scale(.28222)" fill="url(#b)" />
        <path d="M119.24 94.18l3.043 1.496c-.3 12.722-2.295 21.353-2.295 21.353l-2.444-3.246s1.397-10.976 1.696-19.607z" fill-rule="evenodd" fill="url(#b)" />
    </g>
</svg>
