<?xml version="1.0" encoding="utf-8"?>
<!-- Generator: Adobe Illustrator 21.0.0, SVG Export Plug-In . SVG Version: 6.00 Build 0)  -->
<svg version="1.2" baseProfile="tiny" id="Renchon" xmlns="http://www.w3.org/2000/svg" xmlns:xlink="http://www.w3.org/1999/xlink"
	 x="0px" y="0px" viewBox="0 0 417 720" xml:space="preserve">
<g>
	<path display="none" fill="#BBA3D0" d="M-756,117.8c-14.8-12.8-27.3-25.4-45.3-34.2c-3.1-1.5-22.5-6.9-22.8-9.2
		c-0.6-5,15.2-15.1,19-18.1c4.5-3.5,10.5-10.5,16.4-8.8c4.8,1.4,12.1,16.8,14.5,20.9C-770.7,74.3-749.4,113.4-756,117.8z"/>
	<path display="none" fill="#BCA3CF" d="M-995,84.8c8.5,19.5,14.2,46.7,38.4,52.2c-1.7,5.9-19.3,4.6-24.8,8
		c-1.4-5.8-2.4-11.7-4.3-17.3c-1.6-4.7-4.3-6.4-6.7-10c-2.3-3.5-2.3-3.3-3.8-7.9c-1.2-3.7-0.1-8.2-5.3-9.1
		C-999.1,95.5-996.9,90.2-995,84.8z"/>
	<path display="none" fill="#BCA3CF" d="M-799.2,338.5c-6.6-2.3-12.7-6.2-19.7-7.4c3.2-1.3,15.7-6.1,18.8-5.8
		C-794.9,325.7-798.5,333.6-799.2,338.5z"/>
</g>
<g>
	<path fill="#DA6466" d="M21.8,720c-5.2-7.3-3.5-13.9,1.1-20.9c12.6-19.2,26.3-37.6,40.9-55.2l214.5,28.9
		c8.5,13.9,16.2,28.2,22.4,43.3c0.5,1.2,0.9,2.6,1.3,3.9C208.7,720,115.2,720,21.8,720z"/>
	<path fill="#DFD4E8" d="M76.1,361.3c27.9,21.2,24.7,62,22.7,92c-2.7,41.8-3.7,91.4-21.5,130.1c-14.5-18-9.4-41.7-15-62.3
		c-6.3,15.4-6.4,32.2-5,48.5c-11.1-30.8-2.3-74.1,4.7-105C69.7,430.4,69.8,395.7,76.1,361.3z"/>
	<path fill="#FAAE6E" d="M297.6,489.8c3.5-38.8-2.8-85.5-22.8-119.4c-17.3-29.3-50-53.3-73.2-77.8c-36.2-38.3-71.4-77.7-101.4-121.2
		c-8.4-12.3-10.9-20-16.2-33.3c-2.7-6.9-6.5-15.2-10.9-20.3c-6.8-8-0.3-7.8-10.3-5.5c-12.6,2.8-30.1,17.9-35,29.7
		c-4.6,11-0.4,11.2-0.7,22.2c-0.6,20.6-5.7,29,0.5,50.1c13.4,45.7,24,90,42.7,134.1c10.3,24.4,28.2,49.6,27.1,76
		c-1.3,30.6-3.2,61.3-6.2,91.7c-3.1,31.8-13.1,61.1-25.3,90.7c-11.3,27.4,0.3,47.8,20.6,68.6c9.1,9.3,16.1,16.7,27.4,10.9
		c6-3,13-16.2,17-21.3c1.8,10.3,3.3,25.3,8.5,34.6c8.8,15.7,30.8,11.2,47.6,9.4c25-2.7,87.6-14,94.1-43.9c1.4-6.6-3.5-18.2-5.3-25
		c-2.1-5.5-3.9-11-5.2-16.8c0.7-4.9,1.1-9.9,1.2-14.9c-5.7-15.2-10.2-4.2-6-20.3C275,554.1,294.3,526.5,297.6,489.8z"/>
	<path fill="#EFE4B5" d="M204.9,384c-6.5,1.8-13.1,2.6-19.6,3.4c-5.9,0.1-15.1-0.4-17.6-0.8c0,0-4.8,0.6-14.1-6.2
		c-1-1.4-8.4-7.7-10.5-9.9c-1.5,7.4-1.2,14.8-0.4,22.2c0.4,3.9,0.9,8,3.4,11.3c3.4,6,27,13.6,28.1,12.2c0.1-0.1,0.3-0.5,0.6-0.9
		c2.6-3.5,6.8-4.7,10.1-7.3c8.9-7,17.4-14.7,23.7-24.3C207.3,383.7,206.1,383.7,204.9,384z"/>
	<g>
		<path fill="#FBEB95" d="M66.3,79.2c3.6-5.9,40.3,9.1,46.5,10.7c16,4,33.7,20.8,26.6,39c-3.3,8.4-11.8,12.3-20.2,13.9
			c-13.2,2.5-22.8-5.1-30-15.6c-5.8-8.5-10.3-18.2-14.9-27.4C72.8,96.7,64,83,66.3,79.2z"/>
		<path fill="#FCEADC" d="M68.3,109c0,10.6-12.8,42.3-27.1,41.7c-0.6,0-17.8-45.3-18.9-49.7c-2.9-12,1.4-25-2-36.7
			C17.8,56,10.7,46.1,8.1,39.8c-0.9-2.1-2-8.5,0.2-9.1c7.4-2.1,17.2,23.7,20.2,23.4c6.9-1.2-7.6-40,1.6-44.7
			c8.1-4.2,7.8,40.5,12.8,40.3c9.4-0.9-2.6-42.8,9.6-46.2c9.2-2.5,3.6,36.7,4.7,43.4C63.2,42.4,67.8,7,77,14.5
			c8.6,6.9-22,51.6-5.7,56.2C76.1,72.1,97.9,48,93.8,69c-0.6,2.9-11.2,10.2-13.5,13.5C74.8,90.6,72.4,100.1,68.3,109z"/>
		<path fill="#F5C072" d="M132.2,619.1c0.1-4.3,3.6-8.7,6.9-8.7c3,0.1,5.9,3.6,5.8,7.3c-0.2,4.6-3.4,8.6-7,8.6
			C134,626.3,132.1,624.1,132.2,619.1z"/>
		<path fill="#F5C072" d="M156.5,556.1c-0.1,4.4-3,7.8-6.8,7.8c-3.2,0-6.2-3.5-6.1-7.3c0.1-4,3.1-7.6,6.5-7.6
			C153.3,548.9,156.6,552.6,156.5,556.1z"/>
		<path fill="#B2413A" d="M229.5,568.7c-0.1-0.2-0.2-0.3-0.2-0.5c0.2,0.1,0.3,0.2,0.5,0.2L229.5,568.7z"/>
		<polygon fill="#DFD4E9" points="250.6,422.1 250.5,421.8 250.7,421.8 		"/>
		<path display="none" fill="#BBA3D0" d="M301.9,125.5c-3.5-3-6.4-6.8-9.8-9.9c-13.5-12.3-28.7-21.6-45.8-27.9
			c-2.4-0.9-4.9-1.6-7.2-2.2c-2.7-0.7-2.6-1.7-0.8-3.5c7.3-7.6,15.4-14.3,24-20.5c7-5.1,7.1-5.2,12.3,1.9
			c10.6,14.8,19.4,30.3,24.7,47.7c1.4,4.6,2.4,9.2,3.5,13.9C302.6,125.1,302.2,125.3,301.9,125.5z"/>
		<path display="none" fill="#BCA3CF" d="M74.5,94.1c4.1,9.4,6.6,19.4,11.7,28.4c5.8,10,12.8,18.6,24.8,21.3c-0.5,1.7-1.7,2.9-3,3.8
			c-7.2-0.6-14.2-0.2-20.6,3.8c-1-4.4-2-8.9-3.2-13.2c-1.5-5.4-2.5-11.3-8.9-13.7c-1.3-0.6-1.3-2.1-1.5-3.2c-0.4-2.3-0.7-4.5-1-6.8
			c-0.4-2.8-1.6-4.8-4.6-5.2C70.5,104.1,72.6,99.2,74.5,94.1z"/>
		<path fill="#FBEB95" d="M87.3,151.3c6.4-4,13.3-4.4,20.6-3.8C114.9,159.2,88.7,186.3,87.3,151.3z"/>
		<path display="none" fill="#BCA3CF" d="M260.8,335.5c-6.3-2.2-12.1-5.9-18.8-7c0.5-0.2,1-0.5,1.3-0.7c5.8,0.3,10.9-2.3,15.9-4.5
			c0.9-0.4,1.7-1.6,2.7-0.8c0.8,0.7,0.5,1.9,0.3,3C261.9,328.8,261.3,332.2,260.8,335.5z"/>
		<path fill="#FAAE6E" d="M260.2,381.2c-0.1-0.7,0.1-1.2,0.6-1.6C260.8,380.2,260.7,380.8,260.2,381.2z"/>
		<path fill="#DFD4E9" d="M342.3,208.4c-0.2-0.2-0.4-0.4-0.6-0.6c0.3,0.1,0.5,0.2,0.8,0.3C342.5,208.2,342.3,208.4,342.3,208.4z"/>
		<polygon fill="#C7858B" points="238.5,411.8 238.6,412 238.4,412 		"/>
	</g>
	<path fill="#FCEADC" d="M295,261.3c-3.9-15.1-63.1-116.4-99.9-120.9c-36.9-4.5-63.8,31.9-77.8,79c0,0-4,41.4,2.1,71.5
		c0.1,0.7,0.9,7.9,1.9,10.6c2,5.9,6.1,10.7,10.8,15.3c3,2.9,5.8,5.8,8.8,8.8c6.6,3.9,2.4,43.9,2.4,44.9c3.4,3.6,5.7,6.1,10.9,10.4
		c7.7,4.5,11.9,6.3,25.7,7.1c8.6-1,17-1.8,25.3-4c1.2-0.3,2.5-0.3,3.7-0.5c6.1-6.5,10.4-14.2,15.2-21.6c1.6-2.5,2.4-4.9,2.3-7.8
		c-0.1-3.7,0.5-7.3,2.7-10.5c1.5-7.5,5.6-12.9,13.3-15.1c0.4-0.2,0.9-0.5,1.3-0.7c6.4-0.8,36.2-16.3,40.9-21
		c4.7-4.7,8.1-9.1,8.1-9.1S298.4,274.3,295,261.3z"/>
	<path fill="#997365" d="M229.3,416.3c0.8,0.1,1.4,0.5,1.4,1.3c0,1-0.8,1.4-1.7,1.4c-0.9,0-1.4-0.5-1.4-1.3
		C227.6,416.6,228.3,416.3,229.3,416.3z"/>
	<path fill="#B2423B" d="M324.8,369.8c-11.5-9.1-24.4-16-37.7-22.2l0,0l0,0c-2.1-1-4.2-2-6.3-2.9c0,0,0,0.1,0,0.1l-20-8.8
		c0-0.1,0-0.3,0-0.4c-6.3-2.2-12.1-5.9-18.8-7c-7.7,2.1-11.8,7.5-13.3,15.1c2.6,1.7,3.3,4.5,4.4,7.1c0.8,2.1,1.5,4,4.2,4.3
		c2,0.2,1.1,1.5,0.7,2.5c-1.8,3.3-3.7,6.7-5.3,10.1C222.2,389.4,215,412.2,211,436c-2.4,13.7-3.7,27.6-3.4,41.6
		c0,0.9-1.4,3.2,1.5,2.6c0.2-0.3,0.5-0.5,0.8-0.8c3-5.6,23,1.8,25,5.3c2.3-27.4,7.3-54.3,16.1-80.3c2.6-7.9,5-15.9,9.1-23.2
		c-0.1-0.6,12,3.9,12.5,4.5c9.7,10.8,12.4,24.3,13,38.6c1.1,18.8-0.6,37.3-3.2,55.8c-1.8,12.3-2.6,24.7-1.4,37.1
		c0.8,7.8,2.6,15.9,0.5,23.5c-4.6,16.5-16.2,26.7-31.3,33.5c-3,1.3-6.2,1-9.2-0.3c-3.8-1.7-7.6-3.5-11.4-5.2l-0.3,0.3
		c1.9,5.7,5,10.9,7.5,16.4c6,13.4,6.8,27.9,6.3,42.5c-0.2,6.3,2.2,9.4,8.2,11.4c3.9,1.3,5.9,0.5,7.3-3.4c3.8-10.9,2.8-21.8,0.6-32.6
		c-0.6-3.1-0.4-4.7,3.1-4.1c11.2-7.6,22.5-15.1,33.7-22.7c1.7-1.1,3.9-2.1,4.1-4.3c0.2-3.1,1.3-3.2,4-2.5c4.9,1.4,7.1-0.4,7.8-5.3
		c0.3-1.7,0.5-3.3,0.7-4.9c2.9-26.5,5.7-52.9,8.7-79.4c3.4-30.4,6.9-60.7,10.3-91.1C332.2,381.4,330.9,374.7,324.8,369.8z M229,419
		c-0.9,0-1.4-0.5-1.4-1.3c0-1,0.8-1.4,1.7-1.4c0.8,0.2,1.4,0.6,1.4,1.3C230.7,418.6,230,419,229,419z"/>
	<path fill="#958B86" d="M209.9,479.4c3-5.6,10.9-7.3,17.2-3.7c3.7,2.1,5.8,5.5,7.8,9c0,0.3,0.1,0.5,0.1,0.8c0.2,2.1,2,4.8,0.2,6
		c-1.8,1.3-4.3-0.6-6.3-1.5c-3-1.4-5-3.8-7.2-6C218.4,480.6,214.8,478.3,209.9,479.4z"/>
	<path fill="#B2423B" d="M158.9,339.3c-6.3-4.2-11.5-9.8-18.1-13.7c-0.5,0.8-16.2,17.6-21.9,30.7c-7.5,17.3-14.8,34.4-19.6,52.4
		c-1.6,6.2-3,12.4-4.2,18.7c0,0-1.7,9.4-1.7,9.4c0,0-6.6,29.1-6.5,32c0.1,3.8,0.9,7.6,0.6,11.1c-1.1,12.5,0.4,25-2.5,37.3
		c-1.4,6,0.4,12.3-0.1,18.5c-0.3,4.6,0.2,10.1,1.1,14.6c4.1-3.7,6.6-9.1,7.4-14.7c2.5-16.7,5.4-33.3,9.3-49.7
		c1.5-6.2,12.3-61,18.4-75.1c5.1-12.1,14.7-32.2,21.7-43.4c0.8-1.4,10.9-18.4,15.4-25.2C158.9,341.3,160.4,340.3,158.9,339.3z"/>
	<path fill="#958B86" d="M105.5,467.1c-5.6,0.1-5.9-0.2-4.9-5.8c0.5-2.7,1-5.2-0.3-7.8c-0.4-0.8-0.9-1.7-1.8-1.7c-0.9,0-1,1-1.1,1.7
		c-0.3,0.9-0.6,1.8-1.7,1.7c-1.3-0.2-1.2-1.3-1.4-2.4c-0.2-1.1,0.8-3-1.3-3c-1.7,0-2.1,1.7-2.4,3c-0.6,2.9-1,5.7-1.4,8.6
		c-5.1-3-4.4-7.9-3.8-12.5c0.7-5.2,3.3-9.5,8-12.3c6.3-1.3,10.1,0.4,13.3,6c0.9,1.5,1.7,2.1,2.6,3.6c1,3.9,2.2,8.9,1.6,12.9
		C110.4,462.3,108.2,465.2,105.5,467.1z"/>
	<path fill="#997365" d="M122,378c-0.9,0.1-1.5-0.3-1.7-1.1c-0.1-0.9,0.3-1.5,1.1-1.6c1-0.1,1.8,0.2,1.9,1.3
		C123.4,377.4,122.7,377.9,122,378z"/>
	<path fill="#775343" d="M169.1,362.5c-3.6-0.5-7.2-0.7-10.8,0.9c-1.2,5.9-2.7,11.8-4.6,17.5c-1.6,6.9-7.7,33.9-8.5,43.5
		c-0.3,0.9-27.8,127.2-31.4,138.1c0,0,0,0,0,0c-2.6,5.6-6.1,10.6-11,14.4c2.8,3.9,23.6,8.1,34.8,9.3c-1.2-6-3.2-11.8-2.7-18.2
		c0,0,0,0,0,0c0.9-12.9,14.9-65.3,19.7-84.8c5.5-23.2,12.2-50.4,12.5-51.9c5.8-18.1,10.5-36.5,12.3-43.3c1.4-5.8,2.9-11.6,4.3-17.4
		C179.3,367,175.1,363.2,169.1,362.5z"/>
	<path fill="#EBDED5" d="M167.1,431.3c-6-6.6-13.7-7.3-21.9-6.9c0.7-3,0.3-5.6-0.9-8.5c-1.8-4.2-0.5-8.2,1.7-12
		c1-0.9,1.9-1.7,2.9-2.6c9.9-2.8,18.4-0.9,25.1,7.2c0,2.5,0,5,0.1,7.5c0.2,2.9-0.6,5.5-2.8,7.1C168.6,425.3,168.7,428,167.1,431.3z"
		/>
	<path fill="#EBDED5" d="M120.1,536.8c7.5-1.5,14.5-0.6,20.3,4.9c-1.9,8.8-4.7,17.2-5.4,26.3c-6.5-4.2-13.5-5.9-21.1-5.4
		C116.4,554,118.4,545.4,120.1,536.8z"/>
	<path fill="#EBDED5" d="M137.7,586.2c4.1,2.7,1.3,8.1-1.1,8.9c-3.6,1.2-7.2,1-10.9,0.4c-6.4-1.1-12.6-3-18.6-5.2
		c-3.4-1.2-6.3-2.1-7.7-4.1c-1.5-3.8-0.5-8.5,3.6-9.2C103.6,577.1,127.2,581.2,137.7,586.2z"/>
	<path fill="#ECDFD6" d="M183.8,370.6c-4.5-3.5-8.7-7.3-14.7-8.1c-3.6-0.5-7.2-0.7-10.8,0.9c-2.1-3-1.9-6,0.7-8.6
		c1.4-1.4,1.5-3.1,1.3-4.9c-0.8-8.9,2.5-16.3,7.5-23.3c1.7-2.5,3.6-3.5,6.8-2.5c2.5,0.9,5.1,1.2,7.8,1.5c3.1,0.3,4.5,2.1,3.7,4.9
		c-3.1,11.5,0.9,22.7,0.8,34.2C186.9,367.2,187.1,369.7,183.8,370.6z"/>
	<path fill="#0C0907" d="M144.8,487.6c-0.2,1-0.5,2.1-1.6,2.2c-1,0.1-1.5-0.9-1.5-1.8c0.1-1,0.6-2,1.8-2
		C144.5,486,144.7,486.9,144.8,487.6z"/>
	<path fill="#0C0907" d="M139.7,506.8c-0.3,1.1-0.7,2.2-1.8,2.1c-1-0.1-1.2-1-1.1-2c0.1-1,0.5-1.7,1.5-1.8
		C139.4,505.1,139.5,506,139.7,506.8z"/>
	<path fill="#0C0907" d="M131.5,529.1c-0.2,1-0.7,1.9-1.9,1.7c-1-0.2-1.2-1.1-1-2.1c0.2-1,0.7-1.7,1.7-1.6
		C131.3,527.2,131.5,528,131.5,529.1z"/>
	<path fill="#FCE9DB" d="M166.2,435.9c21.6,1.9,19.8,28.5,21.5,44c1.4,13.2,3.4,44.5-12.4,43.5c-6-0.4-16.1-11.7-17.8-16.9
		c-2.6-8.1,3.8-13.8,2.5-20.4c-0.8-3.9-9-2.2-10-6.9c-2.3-10.8,6.6-2.3,10.8-3.9c-2-6.5-19.9-2.3-17.8-11.7
		c1.7-7.8,17.3,1.6,18.9-2.2c1-2.4-18.4-6.5-12.8-13.7c5.1-6.5,18.1,3.4,22,6.2c3.7-5.6-17-9.3-17.5-14.1
		C152.8,430.5,159.8,437.1,166.2,435.9z"/>
	<path fill="#DFD4E9" d="M406.8,539.5c-5.7-47.6-15-94-17.6-142.1c-2.8-53.2,0.3-106.2,0.8-159.4c0.1-13.5,4-35.5-4.9-46.2
		c-6.1-7.3-22.9-11.4-31.4-15c-8.2-3.5-21.5-6.1-28.3-11.9c-10.9-9.3-13.8-30.5-12.3-43.4c4.5,9.3,7.2,19.2,10,29.1
		c18.8-21.9-18.1-72-32.1-86.9c-12.2-13-23-27-38-13.9c-7.8,6.8-19.7,35-28.9,32.4c-14.1-4-7.6-58.3-40.2-56.8
		c-22.4,1.1-52,38-48.3,60.3c2.4-5.1,5.3-10.4,9.8-14.1c-0.4,3.6-0.1,7.2,1,10.8c4.6-12.8,13.9-30.4,25-39
		c13.4-10.3,20.8-3,30.6,11.3c5.3,7.7,5.9,20.3,0,26.6c-2.3,2.4-10.4,1.5-14.6,2.4c-8.6,1.7-16.8,4.5-24.8,8.2
		c-5.8,2.7-14.3,5.9-18.9,10.8c-7.1,7.6-5.3,8.5-9.9,16.8c-5.5,10-18.8,18.7-25.9,28.3c-13.8,18.7-31.5,44.6-34.4,68.1
		c8.1-13.4,17.3-26.5,26.8-39c-3.5,29.8-21.3,60.9-12,92c2.5-15.5,7.7-30.3,12.8-45.1c3.9,28.1-5.8,54.3-8.8,82
		c-2.7,24.4-2.2,48.2,3.1,72.2c-2.2-9.9,0.9-25.3,2.5-35.3c2.9,9.9,6.9,19.7,13.3,27.9c0.4-19.6,1.1-39.2,3.9-58.6
		c1.9-13.6,1.2-40.3,6.6-52.4c1.3,1.8,2.8,3.5,4.6,4.9c-2-10.8-6.9-21.7-0.2-32.1c1.4,4.6,3.6,8.7,6.7,12.5
		c-3.2-29.8,11.4-59.7,28.7-84.1c-4.3,18.7-7.5,38.2-4.4,57.4c3.9-21.7,11.1-42.8,23.2-61.3c-8.1,35.2-3.6,71.2,13.9,102.9
		c0.5-12.4,2.2-24.6,5.9-36.5c2.6,11.7,5,23.8,10.8,34.5c-5.4-31.8-6-60.1,10-88.6c1.3,25.8,11.6,50,25.7,71.3
		c-4.5-16.7-7.4-33.8-7.4-51.1c8.4,19.9,22.2,42.5,26.4,63.6c3.4,17.1-9.4,19.7-13.8,34.4c6.3-1.8,11.3-7,16.1-11.1
		c-1,8.6,0.2,32-4.7,39c-4,5.7-13.5,6.8-19.8,12c15.4,0.8,18.7-12.2,17.3,7.8c-0.7,9.9-3.8,20.1-6.4,29.6
		c-1.1,4.2-16.1,41.4-13.7,43.8c2.6-3.3,18.5-35.7,20.6-35.4c1.8,0.3-12.2,43.8-9.4,47.3c13.8-21.5,23.1-46.1,28.2-71.1
		c4.5-22.4-0.3-50.9,12.3-70c1.5,6.7-0.6,13.5-1.5,20.1c15.3-12.5,18.7-30.5,29.8-45.5c1.7,5.9,3.1,11.8,4.2,17.8
		c1.2-7.2,2.1-14.5,2.1-21.8c-0.1,4.5,8.6,18.8,9.9,24.6c3.6,16,5.1,32.7,7.5,48.9c5.1,34.6,10.6,69,16,103.6
		c11.7,75.3,21.2,181-54.7,225.5c15.5-0.6,26.6-8.6,40.8-12.8c-4.1,6.3-10.4,10.7-15.3,16.2c29.3-11.6,48.5-39,60.4-67.1
		c1.4,18.4-2.9,35.5-7.1,53.2C405.7,615,410.8,572.8,406.8,539.5z M292,115.6c-8.9-8.1-18.7-15-29.3-20.6
		c-2.6-1.4-20.7-8.8-20.9-10.8c-0.6-4.6,10.9-14.4,14.2-16.9c11.2-8.6,11.9-11.2,21.1-0.1c4.8,5.8,32.7,53.1,24.9,58.4
		C298.6,122.2,295.3,118.9,292,115.6z"/>
	<path fill="#DFD4E9" d="M239.2,410.7"/>
	<path fill="#FBEB95" d="M342.3,208.4c6.6,7.4,15.1,13.5,19.5,22.6c4,8.2,3.2,16.4,3.6,25.2c0.3,5.5,4.4,15.4-0.1,18
		c-3.6,2.1-22.5-5.6-26.2-8c-15.7-10.2-11.9-29.8-14.1-46.1c-1.3-9.8-3.4-19.5-6.2-29.1c-3.1-10.7-5.1-13.7,2.1-22.7
		c4.4-5.6,11-14.8,17.9-17.5c8.2-3.2,19.6,1.3,28,2c9.7,0.8,19.4,0.5,29.2,0.5c7.2,0,15.1-1.7,13.7,6.6c-1,6.2-8.9,15.5-12.2,21.1
		c-4.5,7.5-9.8,13.4-16,19.5C370.2,211.7,355.3,214.9,342.3,208.4z"/>
</g>
</svg>
